<?xml version="1.0" encoding="UTF-8" standalone="no"?>
<!-- Generator: Adobe Illustrator 16.0.4, SVG Export Plug-In . SVG Version: 6.00 Build 0)  -->

<svg
   xmlns:dc="http://purl.org/dc/elements/1.1/"
   xmlns:cc="http://creativecommons.org/ns#"
   xmlns:rdf="http://www.w3.org/1999/02/22-rdf-syntax-ns#"
   xmlns:svg="http://www.w3.org/2000/svg"
   xmlns="http://www.w3.org/2000/svg"
   xmlns:sodipodi="http://sodipodi.sourceforge.net/DTD/sodipodi-0.dtd"
   xmlns:inkscape="http://www.inkscape.org/namespaces/inkscape"
   version="1.1"
   id="Layer_1"
   sodipodi:docname="TGC hex tiles.svg"
   inkscape:version="0.92.3 (2405546, 2018-03-11)"
   x="0px"
   y="0px"
   width="8.25in"
   height="10.5in"
   viewBox="0 0 742.50001 945.00004"
   enable-background="new 0 0 594 756"
   xml:space="preserve"><metadata
     id="metadata221"><rdf:RDF><cc:Work
         rdf:about=""><dc:format>image/svg+xml</dc:format><dc:type
           rdf:resource="http://purl.org/dc/dcmitype/StillImage" /><dc:title /></cc:Work></rdf:RDF></metadata><defs
     id="defs219" /><sodipodi:namedview
     inkscape:current-layer="layer1"
     inkscape:window-maximized="1"
     inkscape:window-y="-8"
     inkscape:window-x="-8"
     inkscape:document-units="in"
     inkscape:window-height="1017"
     inkscape:window-width="1920"
     inkscape:pageshadow="2"
     inkscape:pageopacity="0"
     units="in"
     inkscape:cy="317.62213"
     inkscape:cx="504.23482"
     inkscape:zoom="0.62433863"
     showgrid="false"
     guidetolerance="10"
     gridtolerance="10"
     objecttolerance="10"
     borderopacity="1"
     pagecolor="#ffffff"
     bordercolor="#666666"
     id="namedview387"
     showguides="true"
     inkscape:guide-bbox="true"><sodipodi:guide
       position="12.012712,882.93435"
       orientation="1,0"
       id="guide935"
       inkscape:locked="false" /><sodipodi:guide
       position="251.64275,932.77706"
       orientation="0,1"
       id="guide937"
       inkscape:locked="false" /><sodipodi:guide
       position="728.91456,479.39537"
       orientation="1,0"
       id="guide939"
       inkscape:locked="false" /><sodipodi:guide
       position="652.46612,14.334081"
       orientation="0,1"
       id="guide941"
       inkscape:locked="false" /></sodipodi:namedview><g
     id="layer1"
     inkscape:groupmode="layer"
     inkscape:label="Delete"
     transform="translate(0,189.00003)">


























<path
   style="display:inline;opacity:1;fill:none;fill-opacity:1;fill-rule:nonzero;stroke:#ff0000;stroke-width:0.62500006;stroke-linecap:round;stroke-linejoin:round;stroke-miterlimit:4;stroke-dasharray:none;stroke-dashoffset:0;stroke-opacity:1"
   d="m 122.98213,-176.77706 -0.072,0.12048 -0.0665,-0.1187 -15.47659,8.93418 5.17564,8.96477 H 67.90944 l -22.342696,38.69686 h 10.272185 l -0.002,17.87202 h -0.136772 l 0.07032,0.12041 -15.4802,8.932397 -5.132469,-8.889247 -22.339111,38.689683 22.340889,38.693267 -10.446594,0.002 -0.0039,17.8702022 h 0.14024 l -0.07032,0.1186718 15.476586,8.9359861 5.22423,-9.0474981 22.432581,38.853364 44.852641,0.002 0.0104,-0.01738 -5.22779,-9.054658 15.47658,-8.934218 0.0683,0.118671 0.0703,-0.12041 15.4748,8.937803 -5.22601,9.052881 0.0104,0.01738 44.67278,0.002 22.35171,-38.7148439 5.15586,8.9287871 15.47661,-8.9341889 -0.0683,-0.1204003 h 0.13676 v -17.8703 H 210.834 l 22.35348,-38.713087 -22.37324,-38.752592 -5.10731,8.844249 -15.4748,-8.935979 0.0683,-0.11867 h -0.14025 l 0.004,-17.87202 h 10.20923 l -22.27947,-38.59285 h -44.81126 l 5.17386,-8.96297 z"
   id="path4609"
   inkscape:connector-curvature="0" /><path
   inkscape:connector-curvature="0"
   id="path943"
   d="m 288.26023,-81.349014 -0.072,0.120479 -0.0665,-0.118702 -15.47659,8.934179 5.17563,8.964773 h -44.63326 l -22.34269,38.696862 H 221.117 l -0.002,17.872021 h -0.13677 l 0.0703,0.1204101 -15.4802,8.9323945 -5.13247,-8.8892491 -22.33911,38.6896845 22.34089,38.693267 -10.4466,0.002 -0.004,17.8702 h 0.14024 l -0.0703,0.118672 15.47659,8.935984 5.22423,-9.047496 22.43258,38.853365 44.85265,0.002 0.0104,-0.0174 -5.22779,-9.05465 15.47658,-8.93422 0.0683,0.11867 0.0703,-0.12041 15.4748,8.9378 -5.22601,9.05288 0.0104,0.0174 44.67278,0.002 22.3517,-38.714847 5.15587,8.928785 15.4766,-8.934187 -0.0683,-0.1204 h 0.13677 V 70.692847 h -10.31345 l 22.35348,-38.713086 -22.37324,-38.7525912 -5.10731,8.8442475 -15.4748,-8.9359792 0.0683,-0.1186718 h -0.14025 l 0.004,-17.8720213 h 10.20923 l -22.27947,-38.592853 h -44.81126 l 5.17385,-8.962966 z"
   style="display:inline;opacity:1;fill:none;fill-opacity:1;fill-rule:nonzero;stroke:#ff0000;stroke-width:0.62500006;stroke-linecap:round;stroke-linejoin:round;stroke-miterlimit:4;stroke-dasharray:none;stroke-dashoffset:0;stroke-opacity:1" /><path
   style="display:inline;opacity:1;fill:none;fill-opacity:1;fill-rule:nonzero;stroke:#ff0000;stroke-width:0.62500006;stroke-linecap:round;stroke-linejoin:round;stroke-miterlimit:4;stroke-dasharray:none;stroke-dashoffset:0;stroke-opacity:1"
   d="m 453.53538,-176.77096 -0.072,0.12048 -0.0665,-0.1187 -15.47659,8.93418 5.17564,8.96477 h -44.63326 l -22.3427,38.69686 h 10.27219 l -0.002,17.87202 h -0.13677 l 0.0703,0.12041 -15.4802,8.932396 -5.13247,-8.889246 -22.33911,38.689682 22.34089,38.693267 -10.44659,0.002 -0.004,17.8702005 h 0.14024 l -0.0703,0.1186718 15.47658,8.9359842 5.22423,-9.0474962 22.43258,38.8533637 44.85265,0.002 0.0104,-0.01738 -5.22779,-9.054658 15.47658,-8.934218 0.0683,0.118672 0.0703,-0.120411 15.4748,8.937804 -5.22601,9.05288 0.0104,0.01738 44.67278,0.002 22.35171,-38.7148426 5.15586,8.9287851 15.47661,-8.9341869 -0.0683,-0.1204003 h 0.13676 V -24.729099 H 541.3873 l 22.35348,-38.713087 -22.37324,-38.752594 -5.10731,8.844251 -15.4748,-8.935981 0.0683,-0.11867 h -0.14025 l 0.004,-17.87202 h 10.20923 l -22.27947,-38.59285 h -44.81126 l 5.17386,-8.96297 z"
   id="path945"
   inkscape:connector-curvature="0" /><path
   inkscape:connector-curvature="0"
   id="path947"
   d="m 618.70915,-81.328413 -0.072,0.120479 -0.0665,-0.118701 -15.47658,8.934179 5.17563,8.964772 h -44.63326 l -22.34269,38.696862 h 10.27218 l -0.002,17.8720213 h -0.13678 l 0.0703,0.1204102 -15.4802,8.9323944 -5.13247,-8.8892491 -22.33911,38.6896852 22.34088,38.693267 -10.44659,0.002 -0.004,17.8702 h 0.14024 l -0.0703,0.118672 15.47659,8.935988 5.22423,-9.0475 22.43258,38.853373 44.85265,0.002 0.0104,-0.0174 -5.2278,-9.05466 15.47659,-8.93422 0.0683,0.11867 0.0703,-0.12041 15.4748,8.93781 -5.22601,9.05288 0.0104,0.0174 44.67278,0.002 22.3517,-38.714855 5.15587,8.928789 15.4766,-8.93419 -0.0683,-0.120401 h 0.13677 V 70.713449 H 706.5609 l 22.35348,-38.713087 -22.37324,-38.7525909 -5.10732,8.8442476 -15.4748,-8.9359793 0.0683,-0.1186718 h -0.14025 l 0.004,-17.8720216 h 10.20923 l -22.27946,-38.592853 h -44.81126 l 5.17385,-8.962965 z"
   style="display:inline;opacity:1;fill:none;fill-opacity:1;fill-rule:nonzero;stroke:#ff0000;stroke-width:0.62500006;stroke-linecap:round;stroke-linejoin:round;stroke-miterlimit:4;stroke-dasharray:none;stroke-dashoffset:0;stroke-opacity:1" /><path
   inkscape:connector-curvature="0"
   id="path949"
   d="m 123.11108,14.055557 -0.072,0.12048 -0.0665,-0.1187 -15.47659,8.93418 5.17564,8.96477 H 68.03839 l -22.342696,38.69686 h 10.272185 l -0.002,17.87202 h -0.136772 l 0.07032,0.12041 -15.4802,8.932397 -5.132469,-8.889247 -22.339111,38.689683 22.340889,38.69327 -10.446594,0.002 -0.0039,17.8702 h 0.14024 l -0.07032,0.11867 15.476586,8.93599 5.22423,-9.0475 22.432581,38.85336 44.852641,0.002 0.0104,-0.0174 -5.22779,-9.05465 15.47658,-8.93422 0.0683,0.11867 0.0703,-0.12041 15.4748,8.9378 -5.22601,9.05288 0.0104,0.0174 44.67278,0.002 22.35171,-38.71484 5.15586,8.92879 15.47661,-8.93419 -0.0683,-0.1204 h 0.13676 v -17.8703 h -10.31345 l 22.35348,-38.71309 -22.37324,-38.752593 -5.10731,8.844249 -15.4748,-8.935979 0.0683,-0.11867 h -0.14025 l 0.004,-17.87202 h 10.20923 l -22.27947,-38.59285 h -44.81126 l 5.17386,-8.96297 z"
   style="display:inline;opacity:1;fill:none;fill-opacity:1;fill-rule:nonzero;stroke:#ff0000;stroke-width:0.62500006;stroke-linecap:round;stroke-linejoin:round;stroke-miterlimit:4;stroke-dasharray:none;stroke-dashoffset:0;stroke-opacity:1" /><path
   style="display:inline;opacity:1;fill:none;fill-opacity:1;fill-rule:nonzero;stroke:#ff0000;stroke-width:0.62500006;stroke-linecap:round;stroke-linejoin:round;stroke-miterlimit:4;stroke-dasharray:none;stroke-dashoffset:0;stroke-opacity:1"
   d="m 288.38918,109.4836 -0.072,0.12048 -0.0665,-0.1187 -15.47659,8.93418 5.17563,8.96477 h -44.63326 l -22.34269,38.69686 h 10.27218 l -0.002,17.87203 h -0.13677 l 0.0703,0.12041 -15.4802,8.93239 -5.13247,-8.88925 -22.33911,38.68969 22.34089,38.69326 -10.4466,0.002 -0.004,17.8702 h 0.14024 l -0.0703,0.11867 15.47659,8.93599 5.22423,-9.0475 22.43258,38.85337 44.85265,0.002 0.0104,-0.0174 -5.22779,-9.05465 15.47658,-8.93422 0.0683,0.11867 0.0703,-0.12041 15.4748,8.9378 -5.22601,9.05288 0.0104,0.0174 44.67278,0.002 22.3517,-38.71485 5.15587,8.92879 15.4766,-8.93419 -0.0683,-0.1204 h 0.13677 v -17.87041 h -10.31345 l 22.35348,-38.71308 -22.37324,-38.75259 -5.10731,8.84424 -15.4748,-8.93597 0.0683,-0.11868 h -0.14025 l 0.004,-17.87202 h 10.20923 l -22.27947,-38.59285 h -44.81126 l 5.17385,-8.96297 z"
   id="path951"
   inkscape:connector-curvature="0" /><path
   inkscape:connector-curvature="0"
   id="path953"
   d="m 453.66433,14.061657 -0.072,0.12048 -0.0665,-0.1187 -15.47659,8.93418 5.17564,8.96477 h -44.63326 l -22.3427,38.69686 h 10.27219 l -0.002,17.87202 h -0.13677 l 0.0703,0.12041 -15.4802,8.932396 -5.13247,-8.889246 -22.33911,38.689683 22.34089,38.69327 -10.44659,0.002 -0.004,17.8702 h 0.14024 l -0.0703,0.11867 15.47658,8.93598 5.22423,-9.04749 22.43258,38.85336 44.85265,0.002 0.0104,-0.0174 -5.22779,-9.05466 15.47658,-8.93422 0.0683,0.11868 0.0703,-0.12042 15.4748,8.93781 -5.22601,9.05288 0.0104,0.0174 44.67278,0.002 22.35171,-38.71484 5.15586,8.92878 15.47661,-8.93419 -0.0683,-0.1204 h 0.13676 v -17.8704 h -10.31329 l 22.35348,-38.71309 -22.37324,-38.752593 -5.10731,8.844251 -15.4748,-8.935981 0.0683,-0.11867 h -0.14025 l 0.004,-17.87202 h 10.20923 l -22.27947,-38.59285 h -44.81126 l 5.17386,-8.96297 z"
   style="display:inline;opacity:1;fill:none;fill-opacity:1;fill-rule:nonzero;stroke:#ff0000;stroke-width:0.62500006;stroke-linecap:round;stroke-linejoin:round;stroke-miterlimit:4;stroke-dasharray:none;stroke-dashoffset:0;stroke-opacity:1" /><path
   style="display:inline;opacity:1;fill:none;fill-opacity:1;fill-rule:nonzero;stroke:#ff0000;stroke-width:0.62500006;stroke-linecap:round;stroke-linejoin:round;stroke-miterlimit:4;stroke-dasharray:none;stroke-dashoffset:0;stroke-opacity:1"
   d="m 618.8381,109.5042 -0.072,0.12048 -0.0665,-0.1187 -15.47658,8.93418 5.17563,8.96477 H 563.76539 L 541.4227,166.1018 h 10.27218 l -0.002,17.87202 h -0.13678 l 0.0703,0.12041 -15.4802,8.93239 -5.13247,-8.88925 -22.33911,38.68969 22.34088,38.69326 -10.44659,0.002 -0.004,17.8702 h 0.14024 l -0.0703,0.11868 15.47659,8.93598 5.22423,-9.0475 22.43258,38.85338 44.85265,0.002 0.0104,-0.0174 -5.2278,-9.05466 15.47659,-8.93422 0.0683,0.11867 0.0703,-0.12041 15.4748,8.93781 -5.22601,9.05288 0.0104,0.0174 44.67278,0.002 22.3517,-38.71486 5.15587,8.92879 15.4766,-8.93419 -0.0683,-0.1204 h 0.13677 v -17.8704 h -10.31345 l 22.35348,-38.71309 -22.37324,-38.75259 -5.10732,8.84425 -15.4748,-8.93598 0.0683,-0.11868 h -0.14025 l 0.004,-17.87202 h 10.20923 l -22.27946,-38.59285 h -44.81126 l 5.17385,-8.96296 z"
   id="path955"
   inkscape:connector-curvature="0" /><path
   style="display:inline;opacity:1;fill:none;fill-opacity:1;fill-rule:nonzero;stroke:#ff0000;stroke-width:0.62500006;stroke-linecap:round;stroke-linejoin:round;stroke-miterlimit:4;stroke-dasharray:none;stroke-dashoffset:0;stroke-opacity:1"
   d="m 123.11195,204.90758 -0.072,0.12048 -0.0665,-0.1187 -15.47659,8.93418 5.17564,8.96477 H 68.03926 l -22.342696,38.69686 h 10.272185 l -0.002,17.87202 h -0.136772 l 0.07032,0.12041 -15.4802,8.93239 -5.132469,-8.88924 -22.339111,38.68968 22.340889,38.69327 -10.446594,0.002 -0.0039,17.8702 h 0.14024 l -0.07032,0.11867 15.476586,8.93599 5.22423,-9.0475 22.432581,38.85336 44.852641,0.002 0.0104,-0.0174 -5.22779,-9.05465 15.47658,-8.93422 0.0683,0.11867 0.0703,-0.12041 15.4748,8.9378 -5.22601,9.05288 0.0104,0.0174 44.67278,0.002 22.35171,-38.71484 5.15586,8.92879 15.47661,-8.93419 -0.0683,-0.1204 h 0.13676 v -17.8703 h -10.31345 l 22.35348,-38.71309 -22.37324,-38.75259 -5.10731,8.84425 -15.4748,-8.93598 0.0683,-0.11867 H 190.29 l 0.004,-17.87202 h 10.20923 L 178.22376,222.8086 H 133.4125 l 5.17386,-8.96297 z"
   id="path957"
   inkscape:connector-curvature="0" /><path
   inkscape:connector-curvature="0"
   id="path959"
   d="m 288.39005,300.33562 -0.072,0.12048 -0.0665,-0.1187 -15.47659,8.93418 5.17563,8.96477 h -44.63326 l -22.34269,38.69686 h 10.27218 l -0.002,17.87203 h -0.13677 l 0.0703,0.12041 -15.4802,8.93239 -5.13247,-8.88925 -22.33911,38.68969 22.34089,38.69326 -10.4466,0.002 -0.004,17.8702 h 0.14024 l -0.0703,0.11867 15.47659,8.93599 5.22423,-9.0475 22.43258,38.85337 44.85265,0.002 0.0104,-0.0174 -5.22779,-9.05465 15.47658,-8.93422 0.0683,0.11867 0.0703,-0.12041 15.4748,8.9378 -5.22601,9.05288 0.0104,0.0174 44.67278,0.002 22.3517,-38.71485 5.15587,8.92879 15.4766,-8.93419 -0.0683,-0.1204 h 0.13677 V 452.37748 H 376.2418 l 22.35348,-38.71308 -22.37324,-38.75259 -5.10731,8.84424 -15.4748,-8.93597 0.0683,-0.11868 h -0.14025 l 0.004,-17.87202 h 10.20923 l -22.27947,-38.59285 h -44.81126 l 5.17385,-8.96297 z"
   style="display:inline;opacity:1;fill:none;fill-opacity:1;fill-rule:nonzero;stroke:#ff0000;stroke-width:0.62500006;stroke-linecap:round;stroke-linejoin:round;stroke-miterlimit:4;stroke-dasharray:none;stroke-dashoffset:0;stroke-opacity:1" /><path
   style="display:inline;opacity:1;fill:none;fill-opacity:1;fill-rule:nonzero;stroke:#ff0000;stroke-width:0.62500006;stroke-linecap:round;stroke-linejoin:round;stroke-miterlimit:4;stroke-dasharray:none;stroke-dashoffset:0;stroke-opacity:1"
   d="m 453.6652,204.91368 -0.072,0.12048 -0.0665,-0.1187 -15.47659,8.93418 5.17564,8.96477 h -44.63326 l -22.3427,38.69686 h 10.27219 l -0.002,17.87202 h -0.13677 l 0.0703,0.12041 -15.4802,8.93239 -5.13247,-8.88924 -22.33911,38.68968 22.34089,38.69327 -10.44659,0.002 -0.004,17.8702 h 0.14024 l -0.0703,0.11867 15.47658,8.93598 5.22423,-9.04749 22.43258,38.85336 44.85265,0.002 0.0104,-0.0174 -5.22779,-9.05466 15.47658,-8.93422 0.0683,0.11868 0.0703,-0.12042 15.4748,8.93781 -5.22601,9.05288 0.0104,0.0174 44.67278,0.002 22.35171,-38.71484 5.15586,8.92878 15.47661,-8.93419 -0.0683,-0.1204 h 0.13676 v -17.8704 h -10.31329 l 22.35348,-38.71309 -22.37324,-38.75259 -5.10731,8.84425 -15.4748,-8.93598 0.0683,-0.11867 h -0.14025 l 0.004,-17.87202 h 10.20923 L 508.77706,222.81459 H 463.9658 l 5.17386,-8.96297 z"
   id="path961"
   inkscape:connector-curvature="0" /><path
   inkscape:connector-curvature="0"
   id="path963"
   d="m 618.83897,300.35622 -0.072,0.12048 -0.0665,-0.1187 -15.47658,8.93418 5.17563,8.96477 h -44.63326 l -22.34269,38.69687 h 10.27218 l -0.002,17.87202 h -0.13678 l 0.0703,0.12041 -15.4802,8.93239 -5.13247,-8.88925 -22.33911,38.68969 22.34088,38.69326 -10.44659,0.002 -0.004,17.8702 h 0.14024 l -0.0703,0.11868 15.47659,8.93598 5.22423,-9.0475 22.43258,38.85338 44.85265,0.002 0.0104,-0.0174 -5.2278,-9.05466 15.47659,-8.93422 0.0683,0.11867 0.0703,-0.12041 15.4748,8.93781 -5.22601,9.05288 0.0104,0.0174 44.67278,0.002 22.3517,-38.71486 5.15587,8.92879 15.4766,-8.93419 -0.0683,-0.1204 h 0.13677 v -17.8704 h -10.31345 l 22.35348,-38.71309 -22.37324,-38.75259 -5.10732,8.84425 -15.4748,-8.93598 0.0683,-0.11868 h -0.14025 l 0.004,-17.87202 h 10.20923 L 673.95066,318.25713 H 629.1394 l 5.17385,-8.96296 z"
   style="display:inline;opacity:1;fill:none;fill-opacity:1;fill-rule:nonzero;stroke:#ff0000;stroke-width:0.62500006;stroke-linecap:round;stroke-linejoin:round;stroke-miterlimit:4;stroke-dasharray:none;stroke-dashoffset:0;stroke-opacity:1" /><path
   inkscape:connector-curvature="0"
   id="path965"
   d="m 123.11282,395.7596 -0.072,0.12048 -0.0665,-0.1187 -15.47659,8.93418 5.17564,8.96477 H 68.04013 l -22.342696,38.69686 h 10.272185 l -0.002,17.87202 h -0.136772 l 0.07032,0.12041 -15.4802,8.93239 -5.132469,-8.88924 -22.339111,38.68968 22.340889,38.69327 -10.446594,0.002 -0.0039,17.8702 h 0.14024 l -0.07032,0.11867 15.476586,8.93599 5.22423,-9.0475 22.432581,38.85336 44.852641,0.002 0.0104,-0.0174 -5.22779,-9.05465 15.47658,-8.93422 0.0683,0.11867 0.0703,-0.12041 15.4748,8.9378 -5.22601,9.05288 0.0104,0.0174 44.67278,0.002 22.35171,-38.71484 5.15586,8.92879 15.47661,-8.93419 -0.0683,-0.1204 h 0.13676 v -17.8703 h -10.31345 l 22.35348,-38.71309 -22.37324,-38.75259 -5.10731,8.84425 -15.4748,-8.93598 0.0683,-0.11867 h -0.14025 l 0.004,-17.87202 h 10.20923 l -22.27947,-38.59285 h -44.81126 l 5.17386,-8.96297 z"
   style="display:inline;opacity:1;fill:none;fill-opacity:1;fill-rule:nonzero;stroke:#ff0000;stroke-width:0.62500006;stroke-linecap:round;stroke-linejoin:round;stroke-miterlimit:4;stroke-dasharray:none;stroke-dashoffset:0;stroke-opacity:1" /><path
   style="display:inline;opacity:1;fill:none;fill-opacity:1;fill-rule:nonzero;stroke:#ff0000;stroke-width:0.62500006;stroke-linecap:round;stroke-linejoin:round;stroke-miterlimit:4;stroke-dasharray:none;stroke-dashoffset:0;stroke-opacity:1"
   d="m 288.39092,491.18764 -0.072,0.12048 -0.0665,-0.1187 -15.47659,8.93418 5.17563,8.96477 H 233.3182 l -22.34269,38.69686 h 10.27218 l -0.002,17.87203 h -0.13677 l 0.0703,0.12041 -15.4802,8.93239 -5.13247,-8.88925 -22.33911,38.68969 22.34089,38.69326 -10.4466,0.002 -0.004,17.8702 h 0.14024 l -0.0703,0.11867 15.47659,8.93599 5.22423,-9.0475 22.43258,38.85337 44.85265,0.002 0.0104,-0.0174 -5.22779,-9.05465 15.47658,-8.93422 0.0683,0.11867 0.0703,-0.12041 15.4748,8.9378 -5.22601,9.05288 0.0104,0.0174 44.67278,0.002 22.3517,-38.71485 5.15587,8.92879 15.4766,-8.93419 -0.0683,-0.1204 h 0.13677 V 643.2295 h -10.31345 l 22.35348,-38.71308 -22.37324,-38.75259 -5.10731,8.84424 -15.4748,-8.93597 0.0683,-0.11868 h -0.14025 l 0.004,-17.87202 h 10.20923 l -22.27947,-38.59285 h -44.81126 l 5.17385,-8.96297 z"
   id="path967"
   inkscape:connector-curvature="0" /><path
   inkscape:connector-curvature="0"
   id="path969"
   d="m 453.66607,395.7657 -0.072,0.12048 -0.0665,-0.1187 -15.47659,8.93418 5.17564,8.96477 h -44.63326 l -22.3427,38.69686 h 10.27219 l -0.002,17.87202 h -0.13677 l 0.0703,0.12041 -15.4802,8.93239 -5.13247,-8.88924 -22.33911,38.68968 22.34089,38.69327 -10.44659,0.002 -0.004,17.8702 h 0.14024 l -0.0703,0.11867 15.47658,8.93598 5.22423,-9.04749 22.43258,38.85336 44.85265,0.002 0.0104,-0.0174 -5.22779,-9.05466 15.47658,-8.93422 0.0683,0.11868 0.0703,-0.12042 15.4748,8.93781 -5.22601,9.05288 0.0104,0.0174 44.67278,0.002 22.35171,-38.71484 5.15586,8.92878 15.47661,-8.93419 -0.0683,-0.1204 h 0.13676 v -17.8704 h -10.31329 l 22.35348,-38.71309 -22.37324,-38.75259 -5.10731,8.84425 -15.4748,-8.93598 0.0683,-0.11867 h -0.14025 l 0.004,-17.87202 h 10.20923 l -22.27947,-38.59285 h -44.81126 l 5.17386,-8.96297 z"
   style="display:inline;opacity:1;fill:none;fill-opacity:1;fill-rule:nonzero;stroke:#ff0000;stroke-width:0.62500006;stroke-linecap:round;stroke-linejoin:round;stroke-miterlimit:4;stroke-dasharray:none;stroke-dashoffset:0;stroke-opacity:1" /><path
   style="display:inline;opacity:1;fill:none;fill-opacity:1;fill-rule:nonzero;stroke:#ff0000;stroke-width:0.62500006;stroke-linecap:round;stroke-linejoin:round;stroke-miterlimit:4;stroke-dasharray:none;stroke-dashoffset:0;stroke-opacity:1"
   d="m 618.83984,491.20824 -0.072,0.12048 -0.0665,-0.1187 -15.47658,8.93418 5.17563,8.96477 h -44.63326 l -22.34269,38.69687 h 10.27218 l -0.002,17.87202 h -0.13678 l 0.0703,0.12041 -15.4802,8.93239 -5.13247,-8.88925 -22.33911,38.68969 22.34088,38.69326 -10.44659,0.002 -0.004,17.8702 h 0.14024 l -0.0703,0.11868 15.47659,8.93598 5.22423,-9.0475 22.43258,38.85338 44.85265,0.002 0.0104,-0.0174 -5.2278,-9.05466 15.47659,-8.93422 0.0683,0.11867 0.0703,-0.12041 15.4748,8.93781 -5.22601,9.05288 0.0104,0.0174 44.67278,0.002 22.3517,-38.71486 5.15587,8.92879 15.4766,-8.93419 -0.0683,-0.1204 h 0.13677 v -17.8704 h -10.31345 l 22.35348,-38.71309 -22.37324,-38.75259 -5.10732,8.84425 -15.4748,-8.93598 0.0683,-0.11868 h -0.14025 l 0.004,-17.87202 h 10.20923 l -22.27946,-38.59285 h -44.81126 l 5.17385,-8.96296 z"
   id="path971"
   inkscape:connector-curvature="0" /></g></svg>